<svg width="116" height="70" fill="none" xmlns="http://www.w3.org/2000/svg"><path fill-rule="evenodd" clip-rule="evenodd" d="m116 31.072-9.821-1.089-.542 3.034L116 31.072ZM19.333 48.144 6.457 58.334l7.811 8.555 1.74-4.667 3.828-3.772-.503-10.306ZM92.065 7.467 70.103 0l-5.684 8.128-17.246 1.905-12.528-5.016L14.925 17.5 6.032 46.939 0 49.66l5.955 3.111 1.856-6.65 6.341-14.933 6.225 16.45L21.421 70h13.07l-4.718-3.928 1.199-23.06 10.401 4.86 20.88-6.494L80.08 65.1 78.3 70h13.224l-4.833-6.106-9.706-30.527 6.342-4.628 13.494 4.083-.812 18.706 5.143 15.75 3.209-1.595-3.364-11.55 4.756-27.144L92.065 7.467ZM61.867 42.583 51.04 45.967 45.356 70H56.84l-1.933-3.5 9.589-20.417-2.63-3.5Z" fill="#E7E7E7"/></svg>