<svg width="45" height="50" fill="none" xmlns="http://www.w3.org/2000/svg"><path fill-rule="evenodd" clip-rule="evenodd" d="M15.157 31.61c-.286-.595-.93-.916-1.559-.759C6.843 32.538 0 35.976 0 41.15V50h12.5V37.208c0-.707.56-1.28 1.25-1.28s1.25.573 1.25 1.28V50h15V37.208c0-.707.56-1.28 1.25-1.28s1.25.573 1.25 1.28V50H45v-8.851c0-5.173-6.843-8.611-13.598-10.298-.629-.157-1.273.164-1.559.758l-5.08.348h-4.526l-5.08-.348Z" fill="url(#a)"/><path fill-rule="evenodd" clip-rule="evenodd" d="M23.75 0c1.334.176 2.598.623 3.75 1.255v3.971c0 .707.56 1.28 1.25 1.28S30 5.933 30 5.226V3.053c1.542 1.41 2.7 3.12 3.298 4.753.023.6-.04 1.22-.156 1.823a12.405 12.405 0 0 1-.851 2.688l-.017.037-.005.009a.711.711 0 0 0 .31.942.68.68 0 0 0 .922-.317l-.606-.308c.606.308.607.307.607.307v-.002l.002-.004.007-.014.023-.05a13.162 13.162 0 0 0 .343-.836c.204-.55.45-1.317.615-2.183a11.2 11.2 0 0 0 .078-.462c1.071 1.433 1.68 2.918 1.68 4.201 0 4.08-6.156 4.574-13.75 4.574s-13.75-.494-13.75-4.574c0-1.202.535-2.582 1.483-3.93-.04 1.147.183 2.355.938 3.42a.68.68 0 0 0 .96.168.713.713 0 0 0 .143-.984c-.897-1.264-.781-2.947-.33-4.473a12.1 12.1 0 0 1 1.11-2.565l.027-.043a.69.69 0 0 0 .016-.028A13.558 13.558 0 0 1 15 3.053v2.173c0 .707.56 1.28 1.25 1.28s1.25-.573 1.25-1.28v-3.97A10.666 10.666 0 0 1 21.25 0v2.668c0 .706.56 1.28 1.25 1.28s1.25-.574 1.25-1.28V0Z" fill="url(#b)"/><path fill-rule="evenodd" clip-rule="evenodd" d="M13.75 16.74c0 4.946 3.918 8.955 8.75 8.955s8.75-4.01 8.75-8.955h2.5c0 6.359-5.037 11.513-11.25 11.513S11.25 23.099 11.25 16.74h2.5Z" fill="url(#c)"/><defs><linearGradient id="a" x1="0" y1="25" x2="45" y2="25" gradientUnits="userSpaceOnUse"><stop stop-color="#EF7F1A"/><stop offset="1" stop-color="#FF971D"/></linearGradient><linearGradient id="b" x1="0" y1="25" x2="45" y2="25" gradientUnits="userSpaceOnUse"><stop stop-color="#EF7F1A"/><stop offset="1" stop-color="#FF971D"/></linearGradient><linearGradient id="c" x1="0" y1="25" x2="45" y2="25" gradientUnits="userSpaceOnUse"><stop stop-color="#EF7F1A"/><stop offset="1" stop-color="#FF971D"/></linearGradient></defs></svg>