<svg width="50" height="50" fill="none" xmlns="http://www.w3.org/2000/svg"><path d="M18.4 20H7.6v4.286H4L13 32l9-7.714h-3.6V20Z" fill="url(#a)"/><path d="m37 32-9-7.714h3.6V20h10.8v4.286H46L37 32Z" fill="url(#b)"/><path d="M0 8a2 2 0 0 1 2-2h46a2 2 0 0 1 2 2v6a2 2 0 0 1-2 2H2a2 2 0 0 1-2-2V8Z" fill="url(#c)"/><path d="M17 2a2 2 0 0 1 2-2h12a2 2 0 1 1 0 4H19a2 2 0 0 1-2-2Z" fill="url(#d)"/><path d="M0 37a2 2 0 0 1 2-2h46a2 2 0 0 1 2 2v11a2 2 0 0 1-2 2H2a2 2 0 0 1-2-2V37Z" fill="url(#e)"/><defs><linearGradient id="a" x1="0" y1="25" x2="50" y2="25" gradientUnits="userSpaceOnUse"><stop stop-color="#717375"/><stop offset="1" stop-color="#9D9E9F"/></linearGradient><linearGradient id="b" x1="0" y1="25" x2="50" y2="25" gradientUnits="userSpaceOnUse"><stop stop-color="#717375"/><stop offset="1" stop-color="#9D9E9F"/></linearGradient><linearGradient id="c" x1="0" y1="25" x2="50" y2="25" gradientUnits="userSpaceOnUse"><stop stop-color="#717375"/><stop offset="1" stop-color="#9D9E9F"/></linearGradient><linearGradient id="d" x1="0" y1="25" x2="50" y2="25" gradientUnits="userSpaceOnUse"><stop stop-color="#717375"/><stop offset="1" stop-color="#9D9E9F"/></linearGradient><linearGradient id="e" x1="0" y1="25" x2="50" y2="25" gradientUnits="userSpaceOnUse"><stop stop-color="#717375"/><stop offset="1" stop-color="#9D9E9F"/></linearGradient></defs></svg>