<svg width="50" height="50" fill="none" xmlns="http://www.w3.org/2000/svg"><path fill-rule="evenodd" clip-rule="evenodd" d="M25.054 0c-6.273 0-11.99 2.072-15.37 3.765-.305.153-.59.303-.856.447-.525.287-.971.554-1.328.788l3.847 5.663 1.81.721c7.08 3.572 16.571 3.572 23.65 0l2.056-1.066L42.5 5a21.526 21.526 0 0 0-2.345-1.33C36.79 1.997 31.211 0 25.055 0Zm-8.947 6.411a34.114 34.114 0 0 1-4.03-1.012C15.248 3.992 19.969 2.5 25.055 2.5c3.524 0 6.856.717 9.612 1.624-3.23.456-6.676 1.225-9.96 2.175-2.582.748-5.602.665-8.6.112Z" fill="url(#a)"/><path fill-rule="evenodd" clip-rule="evenodd" d="m38.273 13.444-.34.172c-7.787 3.929-18.115 3.929-25.901 0l-.324-.163C.011 26.288-12.259 50.357 25.054 49.996c37.289-.36 24.825-24.151 13.22-36.552ZM27.14 22.5h-4.278v2c-1.39-.003-2.727.5-3.727 1.403-1 .902-1.585 2.134-1.631 3.433-.046 1.299.452 2.564 1.386 3.526.935.962 2.234 1.546 3.621 1.628l.351.01h4.278l.193.016c.246.042.47.163.63.343.16.18.249.407.249.641a.962.962 0 0 1-.249.641c-.16.18-.384.301-.63.343l-.193.016h-8.556v4h4.278v2h4.278v-2c1.39.003 2.727-.5 3.728-1.403 1-.902 1.585-2.134 1.63-3.433.046-1.299-.451-2.564-1.386-3.526-.935-.962-2.233-1.546-3.621-1.628l-.35-.01H22.86l-.192-.016a1.087 1.087 0 0 1-.63-.343.962.962 0 0 1-.25-.641c0-.234.088-.461.25-.641.16-.18.383-.301.63-.343l.192-.016h8.556v-4H27.14v-2Z" fill="url(#b)"/><defs><linearGradient id="a" x1="7.5" y1="7.031" x2="42.5" y2="7.031" gradientUnits="userSpaceOnUse"><stop stop-color="#717375"/><stop offset="1" stop-color="#9D9E9F"/></linearGradient><linearGradient id="b" x1="0" y1="31.722" x2="50" y2="31.722" gradientUnits="userSpaceOnUse"><stop stop-color="#717375"/><stop offset="1" stop-color="#9D9E9F"/></linearGradient></defs></svg>