<svg width="46" height="50" fill="none" xmlns="http://www.w3.org/2000/svg"><path d="M16.198 37.4H9.024v-4.674h6.768c.18-1.59.519-3.18 1.128-4.675H9.024v-4.676h10.874c.068-.07.113-.14.18-.233 2.866-2.946 6.633-4.442 10.378-4.442H9.024v-4.675h22.56V18.7h-1.128c3.655 0 7.31 1.426 10.152 4.255V9.35c0-2.571-2.008-4.675-4.512-4.675h-9.43C25.718 1.964 23.236 0 20.304 0c-2.933 0-5.414 1.964-6.362 4.675h-9.43C2.03 4.675 0 6.78 0 9.35v32.726c0 2.594 2.03 4.675 4.512 4.675h18.183c-.925-.608-1.804-1.286-2.617-2.104-2.03-2.08-3.27-4.605-3.88-7.246Zm4.106-32.725c1.24 0 2.256 1.052 2.256 2.338 0 1.285-1.015 2.337-2.256 2.337-1.24 0-2.256-1.052-2.256-2.337 0-1.286 1.015-2.338 2.256-2.338Zm18.747 34.83c.993-1.614 1.557-3.554 1.557-5.61 0-5.845-4.512-10.52-10.152-10.52s-10.152 4.675-10.152 10.52c0 5.843 4.512 10.518 10.152 10.518a9.886 9.886 0 0 0 5.37-1.59L42.863 50 46 46.75l-6.949-7.246Zm-8.595.233c-3.113 0-5.64-2.618-5.64-5.844 0-3.225 2.527-5.843 5.64-5.843 3.113 0 5.64 2.618 5.64 5.843 0 3.226-2.527 5.844-5.64 5.844Z" fill="url(#a)"/><defs><linearGradient id="a" x1="0" y1="25" x2="46" y2="25" gradientUnits="userSpaceOnUse"><stop stop-color="#717375"/><stop offset="1" stop-color="#9D9E9F"/></linearGradient></defs></svg>