<svg width="467" height="282" fill="none" xmlns="http://www.w3.org/2000/svg"><path fill-rule="evenodd" clip-rule="evenodd" d="m467 125.177-39.539-4.387-2.18 12.22L467 125.177ZM77.833 193.953 25.996 235l31.445 34.467 7.005-18.8 15.411-15.197-2.024-41.517ZM370.642 30.08 282.224 0l-22.883 32.743-69.428 7.677-50.436-20.21-79.39 50.29-35.803 118.597L0 200.063l23.973 12.534 7.472-26.79 25.529-60.16 25.062 66.27L86.24 282h52.616l-18.992-15.823 4.826-92.904 41.874 19.584 84.06-26.164 71.763 95.567-7.161 19.74h53.238l-19.458-24.597-39.073-122.983 25.53-18.643 54.327 16.45-3.269 75.356 20.704 63.45 12.92-6.423-13.543-46.53 19.147-109.353-55.106-78.647ZM249.067 171.55l-43.587 13.63L182.597 282h46.233l-7.783-14.1 38.605-82.25-10.585-14.1Z" fill="url(#a)"/><defs><linearGradient id="a" x1="0" y1="141" x2="467" y2="141" gradientUnits="userSpaceOnUse"><stop stop-color="#717375"/><stop offset="1" stop-color="#9D9E9F"/></linearGradient></defs></svg>