<svg xmlns="http://www.w3.org/2000/svg" width="512" height="512" xml:space="preserve"><g transform="translate(256 248.71)"><linearGradient id="a" gradientUnits="userSpaceOnUse" x1="0" y1="154.586" x2="512" y2="154.586"><stop offset="0%" style="stop-color:#717375;stop-opacity:1"/><stop offset="100%" style="stop-color:#9d9e9f;stop-opacity:1"/></linearGradient><path style="stroke:none;stroke-width:1;stroke-dasharray:none;stroke-linecap:butt;stroke-dashoffset:0;stroke-linejoin:miter;stroke-miterlimit:4;fill:url(#a);fill-rule:evenodd;opacity:1" vector-effect="non-scaling-stroke" transform="translate(-256 -154.59)" d="m512 137.238-43.349-4.81-2.39 13.398zM85.333 212.641l-56.832 45.003 34.475 37.788 7.68-20.61 16.896-16.662zM406.357 32.98 309.419 0l-25.088 35.898-76.118 8.417-55.296-22.158-87.04 55.136-39.253 130.024L0 219.34l26.283 13.742 8.192-29.371 27.989-65.957 27.477 72.656 4.608 98.763h57.686l-20.822-17.347 5.291-101.856 45.909 21.471 92.16-28.685 78.678 104.775-7.85 21.642h58.367l-21.333-26.967-42.838-134.832 27.99-20.44 59.562 18.035-3.584 82.617 22.699 69.565 14.165-7.042-14.848-51.014 20.992-119.89zm-133.29 155.1-47.787 14.944-25.088 106.15h50.688l-8.533-15.459 42.325-90.175z"/></g></svg>