<svg width="380" height="230" fill="none" xmlns="http://www.w3.org/2000/svg"><path fill-rule="evenodd" clip-rule="evenodd" d="m380 102.094-32.173-3.577-1.774 9.966L380 102.094ZM63.333 158.189l-42.18 33.478 25.587 28.111 5.7-15.334 12.54-12.394-1.647-33.861Zm238.26-133.656L229.647 0l-18.62 26.706-56.494 6.26-41.04-16.483-64.6 41.017-29.133 96.728L0 163.172l19.507 10.222 6.08-21.85 20.773-49.066 20.393 54.05L70.173 230h42.814l-15.454-12.906 3.927-75.772 34.073 15.972 68.4-21.338 58.394 77.944L256.5 230h43.32l-15.833-20.061-31.794-100.306 20.774-15.205 44.206 13.416-2.66 61.462 16.847 51.75 10.513-5.239-11.02-37.95 15.58-89.19-44.84-64.144Zm-98.926 115.384L167.2 151.033 148.58 230h37.62l-6.333-11.5 31.413-67.083-8.613-11.5Z" fill="#fff"/></svg>