<svg width="56" height="44" fill="none" xmlns="http://www.w3.org/2000/svg"><path fill-rule="evenodd" clip-rule="evenodd" d="M50.349 13.931v-8.38C29.436-6.421 0 1.879 0 21.753c0 22.16 29.435 27.694 50.349 16.919v-8.779c-7.746 2.793-20.914 1.995-20.914-7.981 0-9.977 11.494-11.37 20.914-7.98ZM16.597 25.097c-.775 0-1.163 0-1.938-.395v-4.577c.177.096.388.236 1.938.236 1.55 0 3.49-1.183 3.49-3.551 0-2.368-1.872-3.552-3.49-3.552-1.595 0-3.489 1.578-3.489 3.552l-.086 18.164c-2.025-.08-4.13-1.303-4.511-3.53l-.006-15.233c.026-4.023 3.586-7.688 7.92-7.688 4.365 0 8.313 3.552 8.313 8.371 0 4.82-4.264 8.203-8.14 8.203Z" fill="url(#a)"/><path fill-rule="evenodd" clip-rule="evenodd" d="M43.982 17.253v4.341h3.102v5.13h6.202v-5.13H56v-4.341H43.982Z" fill="url(#b)"/><defs><linearGradient id="a" x1="0" y1="22" x2="56" y2="22" gradientUnits="userSpaceOnUse"><stop stop-color="#EF7F1A"/><stop offset="1" stop-color="#FF971D"/></linearGradient><linearGradient id="b" x1="0" y1="22" x2="56" y2="22" gradientUnits="userSpaceOnUse"><stop stop-color="#EF7F1A"/><stop offset="1" stop-color="#FF971D"/></linearGradient></defs></svg>