<svg width="24" height="20" fill="none" xmlns="http://www.w3.org/2000/svg"><mask id="a" fill="#fff"><path d="M20.083 12.508a9.98 9.98 0 0 1-3.402 5.22 10.323 10.323 0 0 1-5.887 2.255 10.365 10.365 0 0 1-6.113-1.574 10.045 10.045 0 0 1-3.994-4.8 9.811 9.811 0 0 1-.343-6.185 9.984 9.984 0 0 1 3.44-5.197A10.326 10.326 0 0 1 9.687.013a10.362 10.362 0 0 1 6.101 1.617l-.764 1.146A8.943 8.943 0 0 0 9.758 1.38a8.912 8.912 0 0 0-5.095 1.912 8.617 8.617 0 0 0-2.968 4.484 8.468 8.468 0 0 0 .296 5.338 8.67 8.67 0 0 0 3.447 4.143 8.945 8.945 0 0 0 5.276 1.36 8.91 8.91 0 0 0 5.08-1.947 8.613 8.613 0 0 0 2.936-4.506l1.353.344Z"/></mask><path d="M20.083 12.508a9.98 9.98 0 0 1-3.402 5.22 10.323 10.323 0 0 1-5.887 2.255 10.365 10.365 0 0 1-6.113-1.574 10.045 10.045 0 0 1-3.994-4.8 9.811 9.811 0 0 1-.343-6.185 9.984 9.984 0 0 1 3.44-5.197A10.326 10.326 0 0 1 9.687.013a10.362 10.362 0 0 1 6.101 1.617l-.764 1.146A8.943 8.943 0 0 0 9.758 1.38a8.912 8.912 0 0 0-5.095 1.912 8.617 8.617 0 0 0-2.968 4.484 8.468 8.468 0 0 0 .296 5.338 8.67 8.67 0 0 0 3.447 4.143 8.945 8.945 0 0 0 5.276 1.36 8.91 8.91 0 0 0 5.08-1.947 8.613 8.613 0 0 0 2.936-4.506l1.353.344Z" stroke="#EF7F1A" stroke-width="4" mask="url(#a)"/><path d="m5.831 8.096 4.86 5.238L23 1.27" stroke="#EF7F1A" stroke-width="2"/></svg>