<svg width="380" height="230" viewBox="0 0 380 230" fill="none" xmlns="http://www.w3.org/2000/svg">
<path fill-rule="evenodd" clip-rule="evenodd" d="M380 102.094L347.827 98.5167L346.053 108.483L380 102.094ZM63.3333 158.189L21.1533 191.667L46.74 219.778L52.44 204.444L64.98 192.05L63.3333 158.189ZM301.593 24.5333L229.647 0L211.027 26.7056L154.533 32.9667L113.493 16.4833L48.8933 57.5L19.76 154.228L0 163.172L19.5067 173.394L25.5867 151.544L46.36 102.478L66.7533 156.528L70.1733 230H112.987L97.5333 217.094L101.46 141.322L135.533 157.294L203.933 135.956L262.327 213.9L256.5 230H299.82L283.987 209.939L252.193 109.633L272.967 94.4278L317.173 107.844L314.513 169.306L331.36 221.056L341.873 215.817L330.853 177.867L346.433 88.6778L301.593 24.5333ZM202.667 139.917L167.2 151.033L148.58 230H186.2L179.867 218.5L211.28 151.417L202.667 139.917Z" fill="white"/>
</svg>
