<svg width="45" height="50" viewBox="0 0 45 50" fill="none" xmlns="http://www.w3.org/2000/svg">
<path fill-rule="evenodd" clip-rule="evenodd" d="M15.1568 31.6093C14.8714 31.0152 14.2267 30.6942 13.5982 30.8511C6.84312 32.5375 0 35.976 0 41.1489V50H12.5V37.2077C12.5 36.5012 13.0596 35.9285 13.75 35.9285C14.4404 35.9285 15 36.5012 15 37.2077V50H30V37.2077C30 36.5012 30.5596 35.9285 31.25 35.9285C31.9404 35.9285 32.5 36.5012 32.5 37.2077V50H45V41.1489C45 35.976 38.1569 32.5375 31.4018 30.8511C30.7733 30.6942 30.1286 31.0152 29.8432 31.6093L24.7631 31.9575L20.2366 31.9571L15.1568 31.6093Z" fill="url(#paint0_linear_75_56)"/>
<path fill-rule="evenodd" clip-rule="evenodd" d="M23.75 0C25.0842 0.175715 26.3481 0.623484 27.5 1.2551V5.22633C27.5 5.93283 28.0596 6.50556 28.75 6.50556C29.4404 6.50556 30 5.93283 30 5.22633V3.05312C31.5417 4.46214 32.7008 6.17261 33.2979 7.80605C33.3206 8.40601 33.2571 9.02592 33.1423 9.62895C32.9965 10.3944 32.7766 11.0828 32.5919 11.5814C32.4999 11.8299 32.4175 12.0289 32.3589 12.1641C32.3295 12.2317 32.3063 12.2832 32.2907 12.3169L32.2736 12.3537L32.2692 12.3628C32.1009 12.7107 32.2397 13.1325 32.5796 13.3052C32.9198 13.478 33.3322 13.3359 33.5011 12.9878L32.8947 12.6798C33.5011 12.9878 33.5016 12.9869 33.5016 12.9869L33.5024 12.9854L33.5044 12.9811L33.5111 12.9669L33.5345 12.9167C33.5542 12.874 33.5819 12.8127 33.6158 12.7348C33.6833 12.579 33.7755 12.3559 33.8776 12.0803C34.0811 11.5309 34.3271 10.7635 34.4919 9.8981C34.5204 9.74843 34.5468 9.59416 34.5701 9.43605C35.6411 10.8692 36.25 12.3542 36.25 13.6374C36.25 17.7174 30.0939 18.2107 22.5 18.2107C14.9061 18.2107 8.75 17.7174 8.75 13.6374C8.75 12.4348 9.28475 11.055 10.2335 9.70673C10.1927 10.8541 10.4163 12.0624 11.1711 13.127C11.3965 13.4448 11.826 13.5197 12.1305 13.2946C12.4351 13.0693 12.4993 12.6291 12.2739 12.3114C11.3773 11.047 11.493 9.36377 11.9449 7.83841C12.1648 7.09582 12.4508 6.43922 12.6833 5.96659C12.7991 5.73117 12.9005 5.54365 12.972 5.41652C13.0078 5.35301 13.036 5.30472 13.0546 5.27322L13.0805 5.2303C13.0864 5.22091 13.0919 5.21142 13.0973 5.20184C13.6344 4.44516 14.2749 3.7158 15 3.0531V5.22633C15 5.93283 15.5596 6.50556 16.25 6.50556C16.9404 6.50556 17.5 5.93283 17.5 5.22633V1.25509C18.6519 0.623484 19.9158 0.175715 21.25 0V2.66786C21.25 3.37437 21.8096 3.94709 22.5 3.94709C23.1904 3.94709 23.75 3.37437 23.75 2.66786V0Z" fill="url(#paint1_linear_75_56)"/>
<path fill-rule="evenodd" clip-rule="evenodd" d="M13.75 16.7399C13.75 21.6855 17.6675 25.6946 22.5 25.6946C27.3325 25.6946 31.25 21.6855 31.25 16.7399H33.75C33.75 23.0985 28.7133 28.253 22.5 28.253C16.2868 28.253 11.25 23.0985 11.25 16.7399H13.75Z" fill="url(#paint2_linear_75_56)"/>
<defs>
<linearGradient id="paint0_linear_75_56" x1="8.3819e-08" y1="25" x2="45" y2="25" gradientUnits="userSpaceOnUse">
<stop stop-color="#EF7F1A"/>
<stop offset="1" stop-color="#FF971D"/>
</linearGradient>
<linearGradient id="paint1_linear_75_56" x1="8.3819e-08" y1="25" x2="45" y2="25" gradientUnits="userSpaceOnUse">
<stop stop-color="#EF7F1A"/>
<stop offset="1" stop-color="#FF971D"/>
</linearGradient>
<linearGradient id="paint2_linear_75_56" x1="8.3819e-08" y1="25" x2="45" y2="25" gradientUnits="userSpaceOnUse">
<stop stop-color="#EF7F1A"/>
<stop offset="1" stop-color="#FF971D"/>
</linearGradient>
</defs>
</svg>
