<svg width="53" height="44" viewBox="0 0 53 44" fill="none" xmlns="http://www.w3.org/2000/svg">
<path fill-rule="evenodd" clip-rule="evenodd" d="M22.2 28.7347C22.2 22.449 22.2 16.0635 22.2 9.77778C22.2 7.28345 21.4 4.68934 19.2 2.89342C17.1 1.19728 14.5 0.199547 12 0H10.2C7.6 0.199547 5.1 1.09751 3 2.79365C2.1 3.49206 1.3 4.68934 0.8 5.5873C0.1 7.0839 0 8.18141 0 9.77778V28.7347C0.7 28.1361 0.8 27.737 1.9 26.839C4.3 24.8435 7.6 23.8458 11.1 23.8458C13.7 23.8458 15.6 24.4444 17.8 25.3424C19.4 26.0408 20.2 26.6395 21.3 27.737C21.6 28.0363 21.9 28.5351 22.2 28.7347Z" fill="url(#paint0_linear_14_35)"/>
<path fill-rule="evenodd" clip-rule="evenodd" d="M33 43.9002H41.4L43 42.1043C42.4 41.0068 38.9 37.3152 38.9 36.6168C38.9 36.0181 42.4 31.9274 43 31.1292C42.4 30.0317 38.9 26.3401 38.9 25.6417C38.9 25.0431 42.4 20.9524 43 20.1542C42.4 19.0567 38.9 15.3651 38.9 14.6667C38.9 14.068 42.4 9.97731 43 9.17913L41.4 7.28343H33C33.2 7.88207 34.3 8.38094 34.3 9.17913C34.3 9.87754 30.8 13.6689 30.1 14.6667C30.7 15.4648 34.3 19.5555 34.2 20.1542C34.2 20.8526 30.7 24.644 30.1 25.6417C30.7 26.4399 34.3 30.5306 34.2 31.1292C34.2 31.8277 30.7 35.619 30.1 36.6168C31.1 37.7143 32 39.0113 32.9 40.1088C33.2 40.5079 34.1 41.5057 34.2 41.9048C34.3 42.6032 33.3 43.3016 33 43.9002Z" fill="url(#paint1_linear_14_35)"/>
<path fill-rule="evenodd" clip-rule="evenodd" d="M50.2 43.9002C51 43.9002 51.6 43.8004 51.8 43.7007C52.4 43.5011 52.9 42.9025 53 42.3038V42.0045C52.9 41.0068 51.8 40.009 51.3 39.3106C50.6 38.4127 49.8 37.5147 49.1 36.517C50.1 34.8208 52.9 32.4263 52.9 31.0295C52.9 30.0317 51.8 28.9342 51.1 28.136C50.4 27.2381 49.7 26.4399 49 25.5419C50 23.8458 52.8 21.3514 52.8 20.0544C52.8 19.0567 51.7 18.0589 51 17.161C50.3 16.263 49.6 15.4648 48.9 14.5669C49.6 13.6689 50.3 12.771 51.1 11.873C51.8 11.0748 53 9.87753 52.7 8.78002C52.3 7.18365 50.7 7.08388 49.3 7.08388C47.5 7.08388 45.6 7.08388 43.8 7.08388C43.9 7.48297 44.1 7.58274 44.4 7.88206C44.7 8.28116 44.7 8.28115 45.1 8.4807C45.1 9.17911 43.7 10.6757 43.1 11.3741C42.4 12.2721 41.6 13.17 40.9 14.1678C41 14.5669 42.6 16.3628 43 16.8617C45.9 20.5533 45.8 18.9569 40.9 25.2426C41 25.6417 42.6 27.4376 43 27.9365C45.9 31.6281 45.8 30.0317 40.9 36.3174C41.1 36.8163 43.1 39.3106 43.7 39.9093C44 40.3084 45 41.3061 45 41.805C45.1 42.8027 44.1 43.102 43.9 43.8004L50.2 43.9002Z" fill="url(#paint2_linear_14_35)"/>
<path fill-rule="evenodd" clip-rule="evenodd" d="M11.2 38.4127C10.9 38.4127 9.8 38.2132 9.4 38.1134C6.4 37.0159 5.9 33.9229 7.8 32.3265C8.6 31.6281 9.7 31.229 10.8 31.1293C15.3 30.9297 17.3 36.0182 12.9 38.0136C12.6 38.1134 12.3 38.2132 12 38.2132L11.2 38.4127ZM0 35.5193V34.8209C0 32.6259 0.9 30.5306 2.5 28.9343C4.3 27.0386 7 25.9411 9.8 25.6417C19.4 24.7438 26 33.6236 19.7 40.6077C19 41.4059 17.7 42.2041 16.6 42.703C15.3 43.4014 13.9 43.6009 12.5 43.8005C12.4 43.8005 12.2 43.8005 12.1 43.8005H10C7.8 43.6009 5.5 42.8027 4 41.7052C2.2 40.4082 0.8 38.712 0.3 36.7166L0.2 35.7188C0 35.6191 0 35.5193 0 35.5193Z" fill="url(#paint3_linear_14_35)"/>
<path fill-rule="evenodd" clip-rule="evenodd" d="M30.4 43.9002C30.7 43.4014 31.7 42.5034 31.9 42.0045C31.2 41.1066 27.9 37.3152 27.9 36.6168C27.9 35.5193 31.7 32.0272 31.9 31.0295C31.2 30.1315 27.9 26.3401 27.9 25.6417C27.9 24.5442 31.7 21.0522 31.9 20.0544C31.2 19.1565 27.9 15.3651 27.9 14.6667C27.9 13.5692 31.7 10.0771 31.9 9.07936L30.4 7.28345C30.1 7.18367 24.9 7.28345 24.3 7.28345V35.619C24.3 36.2177 23.9 37.7143 23.6 38.3129C22.8 40.2086 21.4 41.9048 19.5 43.2018C19.1 43.5011 18.7 43.7007 18.3 44L30.4 43.9002Z" fill="url(#paint4_linear_14_35)"/>
<defs>
<linearGradient id="paint0_linear_14_35" x1="9.87202e-08" y1="22" x2="53" y2="22" gradientUnits="userSpaceOnUse">
<stop stop-color="#EF7F1A"/>
<stop offset="1" stop-color="#FF971D"/>
</linearGradient>
<linearGradient id="paint1_linear_14_35" x1="9.87202e-08" y1="22" x2="53" y2="22" gradientUnits="userSpaceOnUse">
<stop stop-color="#EF7F1A"/>
<stop offset="1" stop-color="#FF971D"/>
</linearGradient>
<linearGradient id="paint2_linear_14_35" x1="9.87202e-08" y1="22" x2="53" y2="22" gradientUnits="userSpaceOnUse">
<stop stop-color="#EF7F1A"/>
<stop offset="1" stop-color="#FF971D"/>
</linearGradient>
<linearGradient id="paint3_linear_14_35" x1="9.87202e-08" y1="22" x2="53" y2="22" gradientUnits="userSpaceOnUse">
<stop stop-color="#EF7F1A"/>
<stop offset="1" stop-color="#FF971D"/>
</linearGradient>
<linearGradient id="paint4_linear_14_35" x1="9.87202e-08" y1="22" x2="53" y2="22" gradientUnits="userSpaceOnUse">
<stop stop-color="#EF7F1A"/>
<stop offset="1" stop-color="#FF971D"/>
</linearGradient>
</defs>
</svg>
