<svg width="50" height="44" viewBox="0 0 50 44" fill="none" xmlns="http://www.w3.org/2000/svg">
<path d="M45.0391 9.42857H7.8125C6.94922 9.42857 6.25 8.72536 6.25 7.85714C6.25 6.98893 6.94922 6.28571 7.8125 6.28571H45.3125C46.1758 6.28571 46.875 5.5825 46.875 4.71429C46.875 2.11063 44.7764 0 42.1875 0H6.25C2.79785 0 0 2.81384 0 6.28571V37.7143C0 41.1862 2.79785 44 6.25 44H45.0391C47.7754 44 50 41.8854 50 39.2857V14.1429C50 11.5431 47.7754 9.42857 45.0391 9.42857ZM40.625 29.8571C38.8994 29.8571 37.5 28.4497 37.5 26.7143C37.5 24.9788 38.8994 23.5714 40.625 23.5714C42.3506 23.5714 43.75 24.9788 43.75 26.7143C43.75 28.4497 42.3506 29.8571 40.625 29.8571Z" fill="url(#paint0_linear_75_53)"/>
<defs>
<linearGradient id="paint0_linear_75_53" x1="9.31323e-08" y1="22" x2="50" y2="22" gradientUnits="userSpaceOnUse">
<stop stop-color="#EF7F1A"/>
<stop offset="1" stop-color="#FF971D"/>
</linearGradient>
</defs>
</svg>
