<svg width="50" height="50" viewBox="0 0 50 50" fill="none" xmlns="http://www.w3.org/2000/svg">
<path fill-rule="evenodd" clip-rule="evenodd" d="M25.0543 0C18.7812 0 13.0648 2.07184 9.68367 3.76541C9.37892 3.91801 9.09329 4.06755 8.82779 4.21221C8.30253 4.4985 7.85653 4.76573 7.50003 5.00003L11.3472 10.6634L13.1579 11.3843C20.2362 14.9557 29.7283 14.9557 36.8066 11.3843L38.8627 10.3176L42.5002 5.00003C41.9672 4.64465 41.23 4.2135 40.3228 3.75506C40.2676 3.72711 40.2117 3.69907 40.1551 3.67093C36.7886 1.9958 31.211 0 25.0543 0ZM16.1066 6.41136C14.7221 6.15592 13.3617 5.80361 12.0776 5.39939C15.2461 3.99245 19.968 2.50001 25.0543 2.50001C28.5784 2.50001 31.9104 3.21658 34.6664 4.1239C31.4367 4.57983 27.99 5.34947 24.7069 6.29927C22.1235 7.04663 19.1037 6.96438 16.1066 6.41136Z" fill="url(#paint0_linear_26_110)"/>
<path fill-rule="evenodd" clip-rule="evenodd" d="M38.2733 13.4443L37.9328 13.6161C30.1462 17.5449 19.8184 17.5449 12.0318 13.6161L11.7081 13.4528C0.0113464 26.2879 -12.2595 50.3567 25.0543 49.996C62.3425 49.6357 49.8794 25.845 38.2733 13.4443ZM27.1393 22.4999H22.861V24.4999C21.4707 24.4966 20.134 24.9998 19.1336 25.9027C18.1335 26.8053 17.5486 28.0367 17.503 29.3358C17.4573 30.6349 17.9546 31.8996 18.8892 32.8617C19.824 33.8238 21.1227 34.4078 22.5103 34.49L22.861 34.5H27.1393L27.3318 34.516C27.5784 34.5577 27.8015 34.6791 27.9622 34.859C28.1228 35.0387 28.2109 35.2657 28.2109 35.5C28.2109 35.7342 28.1228 35.9612 27.9622 36.141C27.8015 36.3208 27.5784 36.4422 27.3318 36.484L27.1393 36.5H18.5827V40.5H22.861V42.5H27.1393V40.5C28.5295 40.5032 29.8663 40.0001 30.8667 39.0972C31.8668 38.1946 32.4517 36.9632 32.4973 35.6641C32.5429 34.365 32.0457 33.1003 31.111 32.1382C30.1763 31.1761 28.8775 30.5921 27.49 30.5099L27.1393 30.4999H22.861L22.6685 30.4839C22.4219 30.4422 22.1987 30.3208 22.0381 30.1409C21.8775 29.9612 21.7894 29.7342 21.7894 29.4999C21.7894 29.2657 21.8775 29.0387 22.0381 28.8589C22.1987 28.679 22.4219 28.5577 22.6685 28.5159L22.861 28.4999H31.4175V24.4999H27.1393V22.4999Z" fill="url(#paint1_linear_26_110)"/>
<defs>
<linearGradient id="paint0_linear_26_110" x1="7.50003" y1="7.03143" x2="42.5002" y2="7.03143" gradientUnits="userSpaceOnUse">
<stop stop-color="#717375"/>
<stop offset="1" stop-color="#9D9E9F"/>
</linearGradient>
<linearGradient id="paint1_linear_26_110" x1="9.31327e-08" y1="31.7222" x2="50.0003" y2="31.7222" gradientUnits="userSpaceOnUse">
<stop stop-color="#717375"/>
<stop offset="1" stop-color="#9D9E9F"/>
</linearGradient>
</defs>
</svg>
