<svg width="50" height="50" viewBox="0 0 50 50" fill="none" xmlns="http://www.w3.org/2000/svg">
<path d="M18.4 20H7.6V24.2857H4L13 32L22 24.2857H18.4V20Z" fill="url(#paint0_linear_28_53)"/>
<path d="M37 32L28 24.2857H31.6V20H42.4V24.2857H46L37 32Z" fill="url(#paint1_linear_28_53)"/>
<path d="M0 8C0 6.89543 0.895431 6 2 6H48C49.1046 6 50 6.89543 50 8V14C50 15.1046 49.1046 16 48 16H2C0.895432 16 0 15.1046 0 14V8Z" fill="url(#paint2_linear_28_53)"/>
<path d="M17 2C17 0.895431 17.8954 0 19 0H31C32.1046 0 33 0.895431 33 2C33 3.10457 32.1046 4 31 4H19C17.8954 4 17 3.10457 17 2Z" fill="url(#paint3_linear_28_53)"/>
<path d="M0 37C0 35.8954 0.895431 35 2 35H48C49.1046 35 50 35.8954 50 37V48C50 49.1046 49.1046 50 48 50H2C0.895432 50 0 49.1046 0 48V37Z" fill="url(#paint4_linear_28_53)"/>
<defs>
<linearGradient id="paint0_linear_28_53" x1="9.31323e-08" y1="25" x2="50" y2="25" gradientUnits="userSpaceOnUse">
<stop stop-color="#717375"/>
<stop offset="1" stop-color="#9D9E9F"/>
</linearGradient>
<linearGradient id="paint1_linear_28_53" x1="9.31323e-08" y1="25" x2="50" y2="25" gradientUnits="userSpaceOnUse">
<stop stop-color="#717375"/>
<stop offset="1" stop-color="#9D9E9F"/>
</linearGradient>
<linearGradient id="paint2_linear_28_53" x1="9.31323e-08" y1="25" x2="50" y2="25" gradientUnits="userSpaceOnUse">
<stop stop-color="#717375"/>
<stop offset="1" stop-color="#9D9E9F"/>
</linearGradient>
<linearGradient id="paint3_linear_28_53" x1="9.31323e-08" y1="25" x2="50" y2="25" gradientUnits="userSpaceOnUse">
<stop stop-color="#717375"/>
<stop offset="1" stop-color="#9D9E9F"/>
</linearGradient>
<linearGradient id="paint4_linear_28_53" x1="9.31323e-08" y1="25" x2="50" y2="25" gradientUnits="userSpaceOnUse">
<stop stop-color="#717375"/>
<stop offset="1" stop-color="#9D9E9F"/>
</linearGradient>
</defs>
</svg>
