<svg width="24" height="20" viewBox="0 0 24 20" fill="none" xmlns="http://www.w3.org/2000/svg">
<mask id="path-1-inside-1_23_49" fill="white">
<path d="M20.0829 12.5079C19.5412 14.5569 18.35 16.3846 16.6808 17.7279C15.0117 19.0713 12.9506 19.8609 10.7943 19.9833C8.63799 20.1056 6.49768 19.5543 4.68147 18.4087C2.86526 17.2631 1.46682 15.5823 0.68746 13.6083C-0.0919016 11.6343 -0.211988 9.4688 0.344488 7.42362C0.900963 5.37845 2.1053 3.55905 3.78413 2.22733C5.46296 0.895607 7.52969 0.120252 9.68683 0.0128759C11.844 -0.0945005 13.9802 0.47164 15.7881 1.6298L15.0236 2.77589C13.4632 1.77631 11.6195 1.28769 9.75771 1.38037C7.89594 1.47304 6.1122 2.14223 4.66324 3.2916C3.21428 4.44098 2.17485 6.01126 1.69457 7.77639C1.21429 9.54153 1.31794 11.4105 1.99058 13.1142C2.66323 14.818 3.87019 16.2686 5.43771 17.2573C7.00524 18.2461 8.85248 18.7219 10.7135 18.6163C12.5746 18.5107 14.3535 17.8292 15.7941 16.6698C17.2347 15.5104 18.2628 13.933 18.7303 12.1645L20.0829 12.5079Z"/>
</mask>
<path d="M20.0829 12.5079C19.5412 14.5569 18.35 16.3846 16.6808 17.7279C15.0117 19.0713 12.9506 19.8609 10.7943 19.9833C8.63799 20.1056 6.49768 19.5543 4.68147 18.4087C2.86526 17.2631 1.46682 15.5823 0.68746 13.6083C-0.0919016 11.6343 -0.211988 9.4688 0.344488 7.42362C0.900963 5.37845 2.1053 3.55905 3.78413 2.22733C5.46296 0.895607 7.52969 0.120252 9.68683 0.0128759C11.844 -0.0945005 13.9802 0.47164 15.7881 1.6298L15.0236 2.77589C13.4632 1.77631 11.6195 1.28769 9.75771 1.38037C7.89594 1.47304 6.1122 2.14223 4.66324 3.2916C3.21428 4.44098 2.17485 6.01126 1.69457 7.77639C1.21429 9.54153 1.31794 11.4105 1.99058 13.1142C2.66323 14.818 3.87019 16.2686 5.43771 17.2573C7.00524 18.2461 8.85248 18.7219 10.7135 18.6163C12.5746 18.5107 14.3535 17.8292 15.7941 16.6698C17.2347 15.5104 18.2628 13.933 18.7303 12.1645L20.0829 12.5079Z" stroke="#EF7F1A" stroke-width="4" mask="url(#path-1-inside-1_23_49)"/>
<path d="M5.8313 8.09562L10.6906 13.3337L23 1.271" stroke="#EF7F1A" stroke-width="2"/>
</svg>
