<svg width="46" height="50" viewBox="0 0 46 50" fill="none" xmlns="http://www.w3.org/2000/svg">
<path d="M16.1981 37.4007H9.02403V32.7256H15.7921C15.9725 31.136 16.3109 29.5465 16.9201 28.0505H9.02403V23.3754H19.898C19.9657 23.3053 20.0108 23.2352 20.0785 23.1417C22.9436 20.1964 26.7111 18.7003 30.4561 18.7003H9.02403V14.0252H31.5841V18.7003H30.4561C34.1108 18.7003 37.7656 20.1262 40.6081 22.9547V9.35016C40.6081 6.77887 38.6003 4.67508 36.0961 4.67508H26.666C25.7185 1.96353 23.2369 0 20.3041 0C17.3713 0 14.8897 1.96353 13.9421 4.67508H4.51202C2.03041 4.67508 0 6.77887 0 9.35016V42.0757C0 44.6704 2.03041 46.7508 4.51202 46.7508H22.6954C21.7705 46.1431 20.8906 45.4652 20.0785 44.647C18.0481 42.5666 16.8073 40.0421 16.1981 37.4007ZM20.3041 4.67508C21.5449 4.67508 22.5601 5.72698 22.5601 7.01262C22.5601 8.29827 21.5449 9.35016 20.3041 9.35016C19.0633 9.35016 18.0481 8.29827 18.0481 7.01262C18.0481 5.72698 19.0633 4.67508 20.3041 4.67508ZM39.0515 39.5044C40.0441 37.8915 40.6081 35.9514 40.6081 33.8943C40.6081 28.0505 36.0961 23.3754 30.4561 23.3754C24.8161 23.3754 20.3041 28.0505 20.3041 33.8943C20.3041 39.7382 24.8161 44.4133 30.4561 44.4133C32.4188 44.4133 34.2688 43.8289 35.8254 42.8237L42.8642 50L46 46.7508L39.0515 39.5044ZM30.4561 39.7382C27.3428 39.7382 24.8161 37.1201 24.8161 33.8943C24.8161 30.6685 27.3428 28.0505 30.4561 28.0505C33.5694 28.0505 36.0961 30.6685 36.0961 33.8943C36.0961 37.1201 33.5694 39.7382 30.4561 39.7382Z" fill="url(#paint0_linear_14_436)"/>
<defs>
<linearGradient id="paint0_linear_14_436" x1="8.56817e-08" y1="25" x2="46" y2="25" gradientUnits="userSpaceOnUse">
<stop stop-color="#717375"/>
<stop offset="1" stop-color="#9D9E9F"/>
</linearGradient>
</defs>
</svg>
