<svg width="46" height="50" viewBox="0 0 46 50" fill="none" xmlns="http://www.w3.org/2000/svg">
<path d="M20.5103 39.6653L20.5232 39.6678C20.5144 39.6666 20.5102 39.6653 20.5103 39.6653Z" fill="url(#paint0_linear_14_419)"/>
<path fill-rule="evenodd" clip-rule="evenodd" d="M0 5C0 2.23858 2.37632 0 5.30769 0H34.3482L46 10.9763V45C46 47.7613 43.6236 50 40.6923 50H5.30769C2.37632 50 0 47.7613 0 45V5ZM21.2308 13.3333H10.6154V16.6667H21.2308V13.3333ZM35.3846 23.3333H10.6154V26.6667H35.3846V23.3333ZM18.7705 36.3593C17.3415 36.721 16.2255 37.749 15.8322 38.8603L12.4753 37.8063C13.2616 35.5843 15.3302 33.7787 17.8524 33.1403C20.3545 32.5071 23.2073 33.0375 25.6773 35.178C26.4192 34.9723 27.1544 34.8567 27.8812 34.82C29.7874 34.7237 31.5004 35.1767 32.9689 35.753C34.0474 36.1763 35.093 36.7117 35.9724 37.1617C36.253 37.3053 36.5173 37.4407 36.7597 37.5607C37.9036 38.1263 38.5331 38.3333 38.9231 38.3333V41.6667C37.5434 41.6667 36.1825 41.04 35.115 40.512C34.7856 40.349 34.4667 40.186 34.1522 40.025C33.3125 39.5953 32.5029 39.1813 31.6079 38.83C30.4225 38.3647 29.2606 38.0883 28.0705 38.1487C27.8975 38.1573 27.7209 38.1733 27.5407 38.1977L27.5449 38.242C27.6395 39.3247 27.1651 40.215 26.5542 40.8543C25.4269 42.0343 23.5904 42.6533 22.2106 42.8897C21.4919 43.0127 20.7188 43.0643 20.0381 42.9707C19.7048 42.9247 19.2752 42.8283 18.8704 42.6013C18.4401 42.36 17.93 41.8983 17.7992 41.1593C17.6776 40.472 17.9522 39.9053 18.1922 39.557C18.4398 39.1977 18.7731 38.887 19.1175 38.6187C19.7877 38.0957 20.7642 37.5303 22.0689 36.9087L22.164 36.8437C20.9316 36.1653 19.7481 36.112 18.7705 36.3593V36.3593Z" fill="url(#paint1_linear_14_419)"/>
<defs>
<linearGradient id="paint0_linear_14_419" x1="20.5103" y1="39.6666" x2="20.5232" y2="39.6666" gradientUnits="userSpaceOnUse">
<stop stop-color="#717375"/>
<stop offset="1" stop-color="#9D9E9F"/>
</linearGradient>
<linearGradient id="paint1_linear_14_419" x1="8.56817e-08" y1="25" x2="46" y2="25" gradientUnits="userSpaceOnUse">
<stop stop-color="#717375"/>
<stop offset="1" stop-color="#9D9E9F"/>
</linearGradient>
</defs>
</svg>
