<svg width="46" height="50" viewBox="0 0 46 50" fill="none" xmlns="http://www.w3.org/2000/svg">
<path d="M19.3684 0L37.0373 5.7C37.53 5.85886 37.9608 6.17621 38.2665 6.60572C38.5723 7.03524 38.7371 7.55443 38.7368 8.0875V12.5H43.5789C44.2211 12.5 44.8369 12.7634 45.2909 13.2322C45.7449 13.7011 46 14.337 46 15V20H14.5263V15C14.5263 14.337 14.7814 13.7011 15.2354 13.2322C15.6895 12.7634 16.3053 12.5 16.9474 12.5H33.8947V9.925L19.3684 5.235L4.84211 9.925V28.435C4.84176 29.9656 5.18166 31.4758 5.83562 32.8493C6.48958 34.2229 7.44015 35.4231 8.61411 36.3575L9.07168 36.6975L19.3684 43.95L28.5248 37.5H16.9474C16.3053 37.5 15.6895 37.2366 15.2354 36.7678C14.7814 36.2989 14.5263 35.663 14.5263 35V25H46V35C46 35.663 45.7449 36.2989 45.2909 36.7678C44.8369 37.2366 44.2211 37.5 43.5789 37.5L35.7832 37.5025C34.8462 38.7775 33.7083 39.9025 32.3937 40.8275L19.3684 50L6.34316 40.83C4.38821 39.4536 2.78845 37.605 1.68297 35.4448C0.577489 33.2846 -0.000245066 30.8783 7.79817e-08 28.435V8.0875C0.000291994 7.55485 0.165326 7.03623 0.471045 6.60721C0.776765 6.1782 1.20719 5.86123 1.69958 5.7025L19.3684 0Z" fill="url(#paint0_linear_14_433)"/>
<defs>
<linearGradient id="paint0_linear_14_433" x1="8.56817e-08" y1="25" x2="46" y2="25" gradientUnits="userSpaceOnUse">
<stop stop-color="#717375"/>
<stop offset="1" stop-color="#9D9E9F"/>
</linearGradient>
</defs>
</svg>
