<?xml version="1.0" encoding="UTF-8" standalone="no" ?>
<!DOCTYPE svg PUBLIC "-//W3C//DTD SVG 1.1//EN" "http://www.w3.org/Graphics/SVG/1.1/DTD/svg11.dtd">
<svg xmlns="http://www.w3.org/2000/svg" xmlns:xlink="http://www.w3.org/1999/xlink" version="1.1" width="512" height="512" viewBox="0 0 512 512" xml:space="preserve">
<desc>Created with Fabric.js 4.6.0</desc>
<defs>
</defs>
<g transform="matrix(1 0 0 1 256 248.71)" id="8aaOWn8Ha7Vi_PvJ1OPhl"  >
<linearGradient id="SVGID_2" gradientUnits="userSpaceOnUse" gradientTransform="matrix(1 0 0 1 0 0)"  x1="9.53674004282655e-7" y1="154.5862130013613" x2="512" y2="154.5862130013613">
<stop offset="0%" style="stop-color:rgb(113,115,117);stop-opacity: 1"/>
<stop offset="100%" style="stop-color:rgb(157,158,159);stop-opacity: 1"/>
</linearGradient>
<path style="stroke: none; stroke-width: 1; stroke-dasharray: none; stroke-linecap: butt; stroke-dashoffset: 0; stroke-linejoin: miter; stroke-miterlimit: 4; fill: url(#SVGID_2); fill-rule: evenodd; opacity: 1;" vector-effect="non-scaling-stroke"  transform=" translate(-256, -154.59)" d="M 512 137.23815 L 468.65097000000003 132.42847999999998 L 466.26093000000003 145.82646999999997 z M 85.33303 212.64126 L 28.501029999999993 257.64391 L 62.97599999999999 295.4325 L 70.65599999999999 274.82145 L 87.55199999999999 258.16002000000003 z M 406.35703 32.97882 L 309.41907000000003 0 L 284.33107 35.89831 L 208.21303 44.31456 L 152.91703 22.15728 L 65.87703 77.29338 L 26.624000000000002 207.31747000000001 L 3.552713678800501e-15 219.3402 L 26.282970000000002 233.08224 L 34.47497 203.7109 L 62.464 137.75417000000002 L 89.94103 210.40985 L 94.54903 309.17333 L 152.23507 309.17333 L 131.41303 291.82582 L 136.70399999999998 189.96987000000001 L 182.61302999999998 211.44107000000002 L 274.77302999999995 182.75581000000003 L 353.45106999999996 287.53126000000003 L 345.60009999999994 309.17343000000005 L 403.96809999999994 309.17343000000005 L 382.6350699999999 282.20648000000006 L 339.79702999999995 147.37372000000005 L 367.78706999999997 126.93474000000005 L 427.34902999999997 144.96933000000004 L 423.76502999999997 227.58649000000003 L 446.46399999999994 297.15070000000003 L 460.62902999999994 290.10871000000003 L 445.78102999999993 239.09520000000003 L 466.77302999999995 119.20556000000003 z M 273.06697 188.07959 L 225.28000000000003 203.02281 L 200.19200000000004 309.17242 L 250.88000000000005 309.17242 L 242.34697000000006 293.71419 L 284.672 203.53893 z" stroke-linecap="round" />
</g>
</svg>