<svg width="467" height="282" viewBox="0 0 467 282" fill="none" xmlns="http://www.w3.org/2000/svg">
<path fill-rule="evenodd" clip-rule="evenodd" d="M467 125.177L427.461 120.79L425.281 133.01L467 125.177ZM77.8333 193.953L25.9963 235L57.441 269.467L64.446 250.667L79.857 235.47L77.8333 193.953ZM370.642 30.08L282.224 0L259.341 32.7433L189.913 40.42L139.477 20.21L60.0873 70.5L24.284 189.097L0 200.063L23.9727 212.597L31.4447 185.807L56.974 125.647L82.0363 191.917L86.2393 282H138.855L119.863 266.177L124.689 173.273L166.563 192.857L250.623 166.693L322.386 262.26L315.225 282H368.463L349.005 257.403L309.932 134.42L335.462 115.777L389.789 132.227L386.52 207.583L407.224 271.033L420.144 264.61L406.601 218.08L425.748 108.727L370.642 30.08ZM249.067 171.55L205.48 185.18L182.597 282H228.83L221.047 267.9L259.652 185.65L249.067 171.55Z" fill="url(#paint0_linear_13_18)"/>
<defs>
<linearGradient id="paint0_linear_13_18" x1="8.69855e-07" y1="141" x2="467" y2="141" gradientUnits="userSpaceOnUse">
<stop stop-color="#717375"/>
<stop offset="1" stop-color="#9D9E9F"/>
</linearGradient>
</defs>
</svg>
