<svg width="21" height="20" viewBox="0 0 21 20" xmlns="http://www.w3.org/2000/svg">
<path fill-rule="evenodd" clip-rule="evenodd" d="M10.5 13.637C8.49169 13.637 6.86364 12.0089 6.86364 10.0005C6.86364 7.99206 8.49169 6.36393 10.5 6.36393C12.5083 6.36393 14.1364 7.99206 14.1364 10.0005C14.1364 12.0089 12.5083 13.637 10.5 13.637ZM12.3182 10.0005C12.3182 11.0047 11.5042 11.8187 10.5 11.8187C9.49585 11.8187 8.68182 11.0047 8.68182 10.0005C8.68182 8.99626 9.49585 8.18219 10.5 8.18219C11.5042 8.18219 12.3182 8.99626 12.3182 10.0005Z"/>
<path fill-rule="evenodd" clip-rule="evenodd" d="M16.5511 18.089L18.5667 16.0733L17.8568 13.4943L18.1661 12.7556L20.5 11.4385V8.58807L18.1727 7.26554L17.8686 6.52818L18.5874 3.94778L16.5704 1.93357L13.9912 2.64328L13.2542 2.33427L11.9371 0H9.08676L7.76429 2.32742L7.02713 2.63145L4.44726 1.91173L2.43337 3.92571L3.14316 6.50546L2.83416 7.24246L0.5 8.55961V11.4093L2.82522 12.7347L3.12956 13.4727L2.41088 16.0527L4.42553 18.0675L7.00516 17.3576L7.74222 17.6667L9.05933 20H11.9089L13.2334 17.6746L13.9712 17.3703L16.5511 18.089ZM16.7297 11.4784L15.9371 13.3713L16.5329 15.5358L16.0162 16.0525L13.8564 15.4508L11.9627 16.2319L10.8521 18.1817H10.1208L9.01946 16.2306L7.12868 15.4378L4.96315 16.0337L4.4473 15.5178L5.04896 13.3579L4.26802 11.4643L2.31818 10.3528V9.62139L4.27009 8.51994L5.0629 6.62899L4.46705 4.46336L4.98183 3.94855L7.1416 4.55107L9.03595 3.76977L10.1448 1.81827H10.8754L11.9768 3.77026L13.8676 4.56311L16.0336 3.96711L16.5507 4.48353L15.9492 6.64299L16.7304 8.53726L18.6818 9.64618V10.3768L16.7297 11.4784Z"/>
</svg>
