<svg width="17" height="20" viewBox="0 0 17 20" fill="none" xmlns="http://www.w3.org/2000/svg">
<path fill-rule="evenodd" clip-rule="evenodd" d="M8.5 0C7.46812 0 6.4984 0.329977 5.82971 0.909091H4.94444C3.9626 0.909091 3.16667 1.72312 3.16667 2.72727H2.27778C1.29594 2.72727 0.5 3.5413 0.5 4.54545V18.1818C0.5 19.186 1.29594 20 2.27778 20H14.7222C15.7041 20 16.5 19.186 16.5 18.1818V4.54545C16.5 3.5413 15.7041 2.72727 14.7222 2.72727H13.8333C13.8333 1.72312 13.0374 0.909091 12.0556 0.909091H11.1703C10.5016 0.329977 9.53188 0 8.5 0ZM13.5955 4.54545C13.2881 5.08891 12.7136 5.45455 12.0556 5.45455H4.94444C4.28642 5.45455 3.71189 5.08891 3.4045 4.54545H2.27778V18.1818H14.7222V4.54545H13.5955ZM7.61111 12.3509L11.427 8.44824L12.6841 9.73389L7.61111 14.9222L4.3159 11.5521L5.57298 10.2664L7.61111 12.3509Z" fill="white"/>
</svg>
