<svg width="17" height="20" viewBox="0 0 17 20" xmlns="http://www.w3.org/2000/svg">
<path fill-rule="evenodd" clip-rule="evenodd" d="M14.5 0H2.5C1.39543 0 0.5 0.814028 0.5 1.81818V18.1818C0.5 19.186 1.39543 20 2.5 20H14.5C15.6046 20 16.5 19.186 16.5 18.1818V1.81818C16.5 0.814028 15.6046 0 14.5 0ZM2.5 5.45454V1.81818H14.5V5.45454H2.5ZM2.5 7.27273V18.1818H14.5V7.27273H2.5ZM6.5 16.3636H4.5V14.5455H6.5V16.3636ZM7.5 16.3636H9.5V14.5455H7.5V16.3636ZM12.5 16.3636H10.5V13.6364V12.7273V11.8182H12.5V12.7273V13.6364V16.3636ZM4.5 13.6364H6.5V11.8182H4.5V13.6364ZM9.5 13.6364H7.5V11.8182H9.5V13.6364ZM6.5 10.9091H4.5V9.09091H6.5V10.9091ZM7.5 10.9091H9.5V9.09091H7.5V10.9091ZM12.5 10.9091H10.5V9.09091H12.5V10.9091Z"/>
</svg>
