<svg width="116" height="70" viewBox="0 0 116 70" fill="none" xmlns="http://www.w3.org/2000/svg">
<path fill-rule="evenodd" clip-rule="evenodd" d="M116 31.0722L106.179 29.9833L105.637 33.0167L116 31.0722ZM19.3333 48.1444L6.45733 58.3333L14.268 66.8889L16.008 62.2222L19.836 58.45L19.3333 48.1444ZM92.0653 7.46667L70.1027 0L64.4187 8.12778L47.1733 10.0333L34.6453 5.01667L14.9253 17.5L6.032 46.9389L0 49.6611L5.95467 52.7722L7.81067 46.1222L14.152 31.1889L20.3773 47.6389L21.4213 70H34.4907L29.7733 66.0722L30.972 43.0111L41.3733 47.8722L62.2533 41.3778L80.0787 65.1L78.3 70H91.524L86.6907 63.8944L76.9853 33.3667L83.3267 28.7389L96.8213 32.8222L96.0093 51.5278L101.152 67.2778L104.361 65.6833L100.997 54.1333L105.753 26.9889L92.0653 7.46667ZM61.8667 42.5833L51.04 45.9667L45.356 70H56.84L54.9067 66.5L64.496 46.0833L61.8667 42.5833Z" fill="#E7E7E7"/>
</svg>
