<svg width="18" height="18" viewBox="0 0 18 18" xmlns="http://www.w3.org/2000/svg">
<path fill-rule="evenodd" clip-rule="evenodd" d="M9 18C4.02944 18 0 13.9706 0 9C0 4.02943 4.02944 0 9 0C13.9706 0 18 4.02943 18 9C18 13.9706 13.9706 18 9 18ZM9.00001 16.3638C13.0668 16.3638 16.3636 13.067 16.3636 9.00016C16.3636 4.93333 13.0668 1.63652 9.00001 1.63652C4.93319 1.63652 1.63638 4.93333 1.63638 9.00016C1.63638 13.067 4.93319 16.3638 9.00001 16.3638ZM13.0909 8.18192H9.81818V4.091H8.18181V9.81828H13.0909V8.18192Z"/>
</svg>
