<svg width="19" height="18" viewBox="0 0 19 18" xmlns="http://www.w3.org/2000/svg">
<path fill-rule="evenodd" clip-rule="evenodd" d="M8.08057 3.82937C8.60788 4.41389 8.44069 5.07609 7.97445 5.70441C7.8639 5.85338 7.73649 6.00016 7.5826 6.1619C7.50873 6.23953 7.45113 6.29791 7.33066 6.41851L6.64063 7.10891C6.55024 7.1993 7.16741 8.4326 8.36519 9.63155C9.56231 10.8299 10.7955 11.4475 10.8864 11.3566L11.5759 10.6667C11.9556 10.2865 12.1567 10.1032 12.4331 9.92187C13.0075 9.54498 13.6341 9.44257 14.1626 9.91511C15.8881 11.1494 16.8645 11.9068 17.3429 12.4038C18.2759 13.3733 18.1536 14.8655 17.3482 15.7169C17.0689 16.0121 16.7147 16.3664 16.2964 16.7696C13.7663 19.3012 8.42655 17.7606 4.33421 13.6642C0.240932 9.56691 -1.29884 4.22664 1.22599 1.70045C1.67927 1.24005 1.82872 1.09068 2.27018 0.655695C3.09208 -0.154162 4.65322 -0.280969 5.60223 0.656496C6.10141 1.14961 6.89723 2.17356 8.08057 3.82937ZM12.848 11.939L12.1583 12.6291C10.986 13.802 8.98952 12.8022 7.09295 10.9038C5.19509 9.00404 4.19636 7.0083 5.36908 5.83568L6.05843 5.14595C6.16874 5.03553 6.21919 4.98438 6.27976 4.92073C6.36228 4.834 6.43009 4.75783 6.48438 4.69043C5.43565 3.22957 4.72275 2.31675 4.33843 1.9371C4.13995 1.74103 3.69552 1.77713 3.53236 1.9379C3.09721 2.36667 2.95417 2.50963 2.50272 2.96814C0.879004 4.59276 2.12201 8.90379 5.60645 12.3916C9.08979 15.8784 13.4002 17.122 15.0362 15.4853C15.448 15.0881 15.7836 14.7524 16.0418 14.4794C16.2284 14.2821 16.2618 13.8751 16.0471 13.6521C15.6896 13.2805 14.8142 12.598 13.3026 11.5125C13.1924 11.6012 13.057 11.7298 12.848 11.939ZM11.4396 7.83645L16.2027 3.07333V6.30022H18.0025V0.000854494H11.7031V1.80067H14.93L10.1669 6.56379L11.4396 7.83645Z"/>
</svg>
