<svg width="422" height="560" viewBox="0 0 422 560" fill="none" xmlns="http://www.w3.org/2000/svg">
<path opacity="0.15" fill-rule="evenodd" clip-rule="evenodd" d="M422 248.578L343.683 239.867L339.367 264.133L422 248.578ZM-348.833 385.156L-451.508 466.667L-389.225 535.111L-375.35 497.778L-344.825 467.6L-348.833 385.156ZM231.142 59.7333L56.0084 0L10.6833 65.0222L-126.833 80.2667L-226.733 40.1333L-383.983 140L-454.9 375.511L-503 397.289L-455.517 422.178L-440.717 368.978L-390.15 249.511L-340.508 381.111L-332.183 560H-227.967L-265.583 528.578L-256.025 344.089L-173.083 382.978L-6.58334 331.022L135.558 520.8L121.375 560H226.825L188.283 511.156L110.892 266.933L161.458 229.911L269.067 262.578L262.592 412.222L303.6 538.222L329.192 525.467L302.367 433.067L340.292 215.911L231.142 59.7333ZM-9.66672 340.667L-96 367.733L-141.325 560H-49.75L-65.1667 532L11.3 368.667L-9.66672 340.667Z" fill="#7F8082"/>
</svg>
