<svg width="50" height="44" fill="none" xmlns="http://www.w3.org/2000/svg"><path d="M45.04 9.429H7.812A1.567 1.567 0 0 1 6.25 7.857c0-.868.7-1.571 1.563-1.571h37.5c.863 0 1.562-.704 1.562-1.572C46.875 2.111 44.776 0 42.187 0H6.25C2.798 0 0 2.814 0 6.286v31.428C0 41.186 2.798 44 6.25 44h38.79c2.735 0 4.96-2.115 4.96-4.714V14.143c0-2.6-2.225-4.714-4.96-4.714Zm-4.415 20.428a3.134 3.134 0 0 1-3.125-3.143c0-1.735 1.4-3.143 3.125-3.143a3.134 3.134 0 0 1 3.125 3.143c0 1.736-1.4 3.143-3.125 3.143Z" fill="url(#a)"/><defs><linearGradient id="a" x1="0" y1="22" x2="50" y2="22" gradientUnits="userSpaceOnUse"><stop stop-color="#EF7F1A"/><stop offset="1" stop-color="#FF971D"/></linearGradient></defs></svg>