<svg width="53" height="44" fill="none" xmlns="http://www.w3.org/2000/svg"><path fill-rule="evenodd" clip-rule="evenodd" d="M22.2 28.735V9.778c0-2.495-.8-5.089-3-6.885C17.1 1.197 14.5.2 12 0h-1.8C7.6.2 5.1 1.098 3 2.794c-.9.698-1.7 1.895-2.2 2.793C.1 7.084 0 8.181 0 9.777v18.958c.7-.599.8-.998 1.9-1.896 2.4-1.995 5.7-2.993 9.2-2.993 2.6 0 4.5.598 6.7 1.496 1.6.699 2.4 1.298 3.5 2.395.3.3.6.798.9.998Z" fill="url(#a)"/><path fill-rule="evenodd" clip-rule="evenodd" d="M33 43.9h8.4l1.6-1.796c-.6-1.097-4.1-4.789-4.1-5.487 0-.599 3.5-4.69 4.1-5.488-.6-1.097-4.1-4.789-4.1-5.487 0-.599 3.5-4.69 4.1-5.488-.6-1.097-4.1-4.789-4.1-5.487 0-.599 3.5-4.69 4.1-5.488l-1.6-1.896H33c.2.6 1.3 1.098 1.3 1.896 0 .699-3.5 4.49-4.2 5.488.6.798 4.2 4.888 4.1 5.487 0 .699-3.5 4.49-4.1 5.488.6.798 4.2 4.889 4.1 5.487 0 .699-3.5 4.49-4.1 5.488 1 1.097 1.9 2.394 2.8 3.492.3.399 1.2 1.397 1.3 1.796.1.698-.9 1.397-1.2 1.995Z" fill="url(#b)"/><path fill-rule="evenodd" clip-rule="evenodd" d="M50.2 43.9c.8 0 1.4-.1 1.6-.2.6-.199 1.1-.797 1.2-1.396v-.3c-.1-.997-1.2-1.995-1.7-2.693-.7-.898-1.5-1.796-2.2-2.794 1-1.696 3.8-4.09 3.8-5.488 0-.997-1.1-2.095-1.8-2.893-.7-.898-1.4-1.696-2.1-2.594 1-1.696 3.8-4.19 3.8-5.488 0-.997-1.1-1.995-1.8-2.893-.7-.898-1.4-1.696-2.1-2.594.7-.898 1.4-1.796 2.2-2.694.7-.798 1.9-1.995 1.6-3.093-.4-1.596-2-1.696-3.4-1.696h-5.5c.1.399.3.499.6.798.3.4.3.4.7.599 0 .698-1.4 2.195-2 2.893-.7.898-1.5 1.796-2.2 2.794.1.399 1.7 2.195 2.1 2.694 2.9 3.691 2.8 2.095-2.1 8.38.1.4 1.7 2.196 2.1 2.694 2.9 3.692 2.8 2.096-2.1 8.381.2.5 2.2 2.994 2.8 3.592.3.4 1.3 1.397 1.3 1.896.1.998-.9 1.297-1.1 1.995l6.3.1Z" fill="url(#c)"/><path fill-rule="evenodd" clip-rule="evenodd" d="M11.2 38.413c-.3 0-1.4-.2-1.8-.3-3-1.097-3.5-4.19-1.6-5.786.8-.699 1.9-1.098 3-1.198 4.5-.2 6.5 4.89 2.1 6.885-.3.1-.6.2-.9.2l-.8.199ZM0 35.519v-.698c0-2.195.9-4.29 2.5-5.887 1.8-1.895 4.5-2.993 7.3-3.292 9.6-.898 16.2 7.982 9.9 14.966-.7.798-2 1.596-3.1 2.095-1.3.698-2.7.898-4.1 1.097H10c-2.2-.2-4.5-.997-6-2.095C2.2 40.408.8 38.712.3 36.717l-.1-.998c-.2-.1-.2-.2-.2-.2Z" fill="url(#d)"/><path fill-rule="evenodd" clip-rule="evenodd" d="M30.4 43.9c.3-.499 1.3-1.397 1.5-1.895-.7-.898-4-4.69-4-5.388 0-1.098 3.8-4.59 4-5.587-.7-.899-4-4.69-4-5.388 0-1.098 3.8-4.59 4-5.588-.7-.897-4-4.689-4-5.387 0-1.098 3.8-4.59 4-5.588l-1.5-1.796c-.3-.1-5.5 0-6.1 0V35.62c0 .599-.4 2.095-.7 2.694-.8 1.896-2.2 3.592-4.1 4.889-.4.3-.8.499-1.2.798l12.1-.1Z" fill="url(#e)"/><defs><linearGradient id="a" x1="0" y1="22" x2="53" y2="22" gradientUnits="userSpaceOnUse"><stop stop-color="#EF7F1A"/><stop offset="1" stop-color="#FF971D"/></linearGradient><linearGradient id="b" x1="0" y1="22" x2="53" y2="22" gradientUnits="userSpaceOnUse"><stop stop-color="#EF7F1A"/><stop offset="1" stop-color="#FF971D"/></linearGradient><linearGradient id="c" x1="0" y1="22" x2="53" y2="22" gradientUnits="userSpaceOnUse"><stop stop-color="#EF7F1A"/><stop offset="1" stop-color="#FF971D"/></linearGradient><linearGradient id="d" x1="0" y1="22" x2="53" y2="22" gradientUnits="userSpaceOnUse"><stop stop-color="#EF7F1A"/><stop offset="1" stop-color="#FF971D"/></linearGradient><linearGradient id="e" x1="0" y1="22" x2="53" y2="22" gradientUnits="userSpaceOnUse"><stop stop-color="#EF7F1A"/><stop offset="1" stop-color="#FF971D"/></linearGradient></defs></svg>