<svg width="46" height="50" fill="none" xmlns="http://www.w3.org/2000/svg"><path d="m20.51 39.665.013.003a.083.083 0 0 1-.013-.003Z" fill="url(#a)"/><path fill-rule="evenodd" clip-rule="evenodd" d="M0 5c0-2.761 2.376-5 5.308-5h29.04L46 10.976V45c0 2.761-2.376 5-5.308 5H5.308C2.376 50 0 47.761 0 45V5Zm21.23 8.333H10.616v3.334h10.616v-3.334Zm14.155 10h-24.77v3.334h24.77v-3.334ZM18.77 36.36c-1.43.362-2.546 1.39-2.939 2.501l-3.357-1.054c.787-2.222 2.855-4.027 5.377-4.666 2.503-.633 5.355-.102 7.825 2.038a10.137 10.137 0 0 1 2.204-.358c1.906-.096 3.62.357 5.088.933 1.078.423 2.124.959 3.003 1.409.281.143.545.279.788.399 1.144.565 1.773.772 2.163.772v3.334c-1.38 0-2.74-.627-3.808-1.155-.33-.163-.648-.326-.963-.487-.84-.43-1.65-.844-2.544-1.195-1.186-.465-2.347-.742-3.538-.681-.172.008-.35.024-.53.049l.005.044c.095 1.083-.38 1.973-.99 2.612-1.128 1.18-2.965 1.8-4.344 2.036-.72.123-1.492.174-2.173.08a3.321 3.321 0 0 1-1.168-.369c-.43-.241-.94-.703-1.07-1.442-.122-.687.152-1.254.392-1.602.248-.36.581-.67.925-.938.67-.523 1.647-1.089 2.952-1.71l.095-.065c-1.232-.679-2.416-.732-3.394-.485Z" fill="url(#b)"/><defs><linearGradient id="a" x1="20.51" y1="39.667" x2="20.523" y2="39.667" gradientUnits="userSpaceOnUse"><stop stop-color="#717375"/><stop offset="1" stop-color="#9D9E9F"/></linearGradient><linearGradient id="b" x1="0" y1="25" x2="46" y2="25" gradientUnits="userSpaceOnUse"><stop stop-color="#717375"/><stop offset="1" stop-color="#9D9E9F"/></linearGradient></defs></svg>