<svg width="46" height="50" fill="none" xmlns="http://www.w3.org/2000/svg"><path d="m19.368 0 17.67 5.7c.492.159.923.476 1.229.906.305.43.47.948.47 1.482V12.5h4.842c.642 0 1.258.263 1.712.732.454.47.709 1.105.709 1.768v5H14.526v-5c0-.663.255-1.299.71-1.768a2.383 2.383 0 0 1 1.711-.732h16.948V9.925l-14.527-4.69-14.526 4.69v18.51c0 1.53.34 3.04.994 4.414a9.94 9.94 0 0 0 2.778 3.509l.458.34 10.296 7.252 9.157-6.45H16.947a2.383 2.383 0 0 1-1.712-.732A2.542 2.542 0 0 1 14.526 35V25H46v10a2.54 2.54 0 0 1-.71 1.768 2.383 2.383 0 0 1-1.711.732l-7.796.002a14.708 14.708 0 0 1-3.39 3.325L19.369 50 6.343 40.83a14.85 14.85 0 0 1-4.66-5.385A15.393 15.393 0 0 1 0 28.435V8.088c0-.533.165-1.052.471-1.48A2.425 2.425 0 0 1 1.7 5.702L19.368 0Z" fill="url(#a)"/><defs><linearGradient id="a" x1="0" y1="25" x2="46" y2="25" gradientUnits="userSpaceOnUse"><stop stop-color="#717375"/><stop offset="1" stop-color="#9D9E9F"/></linearGradient></defs></svg>