<?xml version="1.0" encoding="utf-8"?><svg viewBox="0 0 512 560" xmlns="http://www.w3.org/2000/svg" xmlns:xlink="http://www.w3.org/1999/xlink"><style>:root>svg{display:none}:root>svg:target{display:block}</style><svg viewBox="0 0 18 16" id="arr" xmlns="http://www.w3.org/2000/svg"><path fill-rule="evenodd" clip-rule="evenodd" d="M4.034 8.919H17.5V7.08H4.034L9.844 1.3 8.538 0 .5 8l8.038 8 1.306-1.3-5.81-5.781Z"/></svg><svg fill="none" viewBox="0 0 18 16" id="arr-white" xmlns="http://www.w3.org/2000/svg"><path fill-rule="evenodd" clip-rule="evenodd" d="M13.966 8.919H.5V7.08h13.466L8.156 1.3 9.462 0 17.5 8l-8.038 8-1.306-1.3 5.81-5.781Z" fill="#fff"/></svg><svg viewBox="0 0 16 16" id="button-ico1" xmlns="http://www.w3.org/2000/svg"><path fill-rule="evenodd" clip-rule="evenodd" d="m9.257 8 4.965 4.965V9.778H16V16H9.778v-1.778h3.187L8 9.257l-4.965 4.965h3.187V16H0V9.778h1.778v3.187L6.743 8 1.778 3.035v3.187H0V0h6.222v1.778H3.035L8 6.743l4.965-4.965H9.778V0H16v6.222h-1.778V3.035L9.257 8Z"/></svg><svg viewBox="0 0 21 20" id="button-ico2" xmlns="http://www.w3.org/2000/svg"><path fill-rule="evenodd" clip-rule="evenodd" d="M10.5 13.637a3.636 3.636 0 1 1 0-7.273 3.636 3.636 0 0 1 0 7.273Zm1.818-3.636a1.818 1.818 0 1 1-3.636 0 1.818 1.818 0 0 1 3.636 0Z"/><path fill-rule="evenodd" clip-rule="evenodd" d="m16.551 18.089 2.016-2.016-.71-2.579.31-.738 2.333-1.318v-2.85l-2.327-1.322-.304-.738.718-2.58-2.017-2.014-2.579.71-.737-.31L11.937 0h-2.85L7.764 2.327l-.737.304-2.58-.72-2.014 2.015.71 2.58-.309.736L.5 8.56v2.85l2.325 1.325.305.738-.72 2.58 2.016 2.014 2.58-.71.736.31L9.06 20h2.85l1.324-2.325.738-.305 2.58.719Zm.179-6.61-.793 1.892.596 2.165-.517.516-2.16-.601-1.893.78-1.11 1.95h-.732l-1.102-1.95-1.89-.793-2.166.596-.516-.516.602-2.16-.781-1.894-1.95-1.111V9.62L4.27 8.52l.793-1.891-.596-2.166.515-.514 2.16.602 1.894-.781 1.109-1.952h.73l1.102 1.952 1.89.793 2.167-.596.517.517-.602 2.159.781 1.894 1.952 1.11v.73l-1.952 1.101Z"/></svg><svg viewBox="0 0 17 20" id="button-ico3" xmlns="http://www.w3.org/2000/svg"><path fill-rule="evenodd" clip-rule="evenodd" d="M14.5 0h-12C1.395 0 .5.814.5 1.818v16.364c0 1.004.895 1.818 2 1.818h12c1.105 0 2-.814 2-1.818V1.818C16.5.814 15.605 0 14.5 0Zm-12 5.455V1.818h12v3.637h-12Zm0 1.818v10.909h12V7.272h-12Zm4 9.09h-2v-1.817h2v1.818Zm1 0h2v-1.817h-2v1.818Zm5 0h-2v-4.545h2v4.546Zm-8-2.727h2v-1.818h-2v1.818Zm5 0h-2v-1.818h2v1.818Zm-3-2.727h-2V9.091h2v1.818Zm1 0h2V9.091h-2v1.818Zm5 0h-2V9.091h2v1.818Z"/></svg><svg viewBox="0 0 21 20" id="button-ico4" xmlns="http://www.w3.org/2000/svg"><path fill-rule="evenodd" clip-rule="evenodd" d="m4.5 20 6.087-3.842H18.5c1.105 0 2-.904 2-2.02V2.02a2.01 2.01 0 0 0-2-2.02h-16C1.395 0 .5.904.5 2.02v12.118a2.01 2.01 0 0 0 2 2.02h2V20Zm5.513-5.862L6.5 16.356v-2.218h-4V2.02h16v12.118h-8.487ZM5.5 11.108V9.09h7v2.02h-7Zm0-6.059v2.02h9V5.05h-9Z"/></svg><svg viewBox="0 0 17 20" id="button-ico5" xmlns="http://www.w3.org/2000/svg"><path fill-rule="evenodd" clip-rule="evenodd" d="M8.5 0C7.468 0 6.498.33 5.83.91h-.886c-.981 0-1.777.813-1.777 1.817h-.89C1.297 2.727.5 3.541.5 4.545v13.637C.5 19.186 1.296 20 2.278 20h12.444c.982 0 1.778-.814 1.778-1.818V4.545c0-1.004-.796-1.818-1.778-1.818h-.889c0-1.004-.796-1.818-1.777-1.818h-.886C10.502.33 9.532 0 8.5 0Zm5.095 4.545a1.77 1.77 0 0 1-1.54.91h-7.11a1.77 1.77 0 0 1-1.54-.91H2.277v13.637h12.444V4.545h-1.127Zm-5.984 7.806 3.816-3.903 1.257 1.286-5.073 5.188-3.295-3.37 1.257-1.286 2.038 2.085Z"/></svg><svg fill="none" viewBox="0 0 116 70" id="elef" xmlns="http://www.w3.org/2000/svg"><path fill-rule="evenodd" clip-rule="evenodd" d="m116 31.072-9.821-1.089-.542 3.034L116 31.072ZM19.333 48.144 6.457 58.334l7.811 8.555 1.74-4.667 3.828-3.772-.503-10.306ZM92.065 7.467 70.103 0l-5.684 8.128-17.246 1.905-12.528-5.016L14.925 17.5 6.032 46.939 0 49.66l5.955 3.111 1.856-6.65 6.341-14.933 6.225 16.45L21.421 70h13.07l-4.718-3.928 1.199-23.06 10.401 4.86 20.88-6.494L80.08 65.1 78.3 70h13.224l-4.833-6.106-9.706-30.527 6.342-4.628 13.494 4.083-.812 18.706 5.143 15.75 3.209-1.595-3.364-11.55 4.756-27.144L92.065 7.467ZM61.867 42.583 51.04 45.967 45.356 70H56.84l-1.933-3.5 9.589-20.417-2.63-3.5Z" fill="#E7E7E7"/></svg><svg viewBox="0 0 18 18" id="footer-ico1" xmlns="http://www.w3.org/2000/svg"><path fill-rule="evenodd" clip-rule="evenodd" d="M9 18A9 9 0 1 1 9 0a9 9 0 0 1 0 18Zm0-1.636A7.364 7.364 0 1 0 9 1.637a7.364 7.364 0 0 0 0 14.727Zm4.09-8.182H9.819V4.09H8.182v5.727h4.909V8.182Z"/></svg><svg viewBox="0 0 18 14" id="footer-ico2" xmlns="http://www.w3.org/2000/svg"><path fill-rule="evenodd" clip-rule="evenodd" d="M1.636 0h14.728C17.267 0 18 .696 18 1.556v10.888c0 .86-.733 1.556-1.636 1.556H1.636C.733 14 0 13.304 0 12.444V1.556C0 .696.733 0 1.636 0Zm0 5.147v7.297h14.728V5.148L9 8.648l-7.364-3.5Zm0-1.739L9 6.908l7.364-3.5V1.556H1.636v1.852Z"/></svg><svg viewBox="0 0 19 18" id="footer-ico3" xmlns="http://www.w3.org/2000/svg"><path fill-rule="evenodd" clip-rule="evenodd" d="M8.08 3.83c.528.584.36 1.246-.106 1.874-.11.15-.238.296-.391.458-.074.078-.132.136-.252.257l-.69.69c-.09.09.526 1.324 1.724 2.523 1.197 1.198 2.43 1.816 2.521 1.725l.69-.69c.38-.38.58-.564.857-.745.575-.377 1.201-.48 1.73-.007 1.725 1.234 2.701 1.992 3.18 2.489.933.97.81 2.462.005 3.313-.28.295-.633.65-1.052 1.053-2.53 2.531-7.87.99-11.962-3.106C.241 9.567-1.299 4.227 1.226 1.7A75.7 75.7 0 0 1 2.27.656c.822-.81 2.383-.937 3.332 0 .5.494 1.295 1.518 2.479 3.173Zm4.768 8.109-.69.69c-1.172 1.173-3.168.173-5.065-1.725-1.898-1.9-2.897-3.896-1.724-5.068l.69-.69c.11-.11.16-.162.22-.225.083-.087.151-.163.205-.23C5.436 3.23 4.723 2.316 4.338 1.936c-.198-.196-.642-.16-.806 0-.435.43-.578.573-1.03 1.031-1.623 1.625-.38 5.936 3.104 9.424 3.484 3.486 7.794 4.73 9.43 3.093.412-.397.748-.733 1.006-1.006.186-.197.22-.604.005-.827-.357-.371-1.233-1.054-2.744-2.14a6.17 6.17 0 0 0-.455.427ZM11.44 7.836l4.763-4.763V6.3h1.8V0h-6.3v1.8h3.227l-4.763 4.764 1.273 1.272Z"/></svg><svg fill="none" viewBox="0 0 24 20" id="marker" xmlns="http://www.w3.org/2000/svg"><mask id="la" fill="#fff"><path d="M20.083 12.508a9.98 9.98 0 0 1-3.402 5.22 10.323 10.323 0 0 1-5.887 2.255 10.365 10.365 0 0 1-6.113-1.574 10.045 10.045 0 0 1-3.994-4.8 9.811 9.811 0 0 1-.343-6.185 9.984 9.984 0 0 1 3.44-5.197A10.326 10.326 0 0 1 9.687.013a10.362 10.362 0 0 1 6.101 1.617l-.764 1.146A8.943 8.943 0 0 0 9.758 1.38a8.912 8.912 0 0 0-5.095 1.912 8.617 8.617 0 0 0-2.968 4.484 8.468 8.468 0 0 0 .296 5.338 8.67 8.67 0 0 0 3.447 4.143 8.945 8.945 0 0 0 5.276 1.36 8.91 8.91 0 0 0 5.08-1.947 8.613 8.613 0 0 0 2.936-4.506l1.353.344Z"/></mask><path d="M20.083 12.508a9.98 9.98 0 0 1-3.402 5.22 10.323 10.323 0 0 1-5.887 2.255 10.365 10.365 0 0 1-6.113-1.574 10.045 10.045 0 0 1-3.994-4.8 9.811 9.811 0 0 1-.343-6.185 9.984 9.984 0 0 1 3.44-5.197A10.326 10.326 0 0 1 9.687.013a10.362 10.362 0 0 1 6.101 1.617l-.764 1.146A8.943 8.943 0 0 0 9.758 1.38a8.912 8.912 0 0 0-5.095 1.912 8.617 8.617 0 0 0-2.968 4.484 8.468 8.468 0 0 0 .296 5.338 8.67 8.67 0 0 0 3.447 4.143 8.945 8.945 0 0 0 5.276 1.36 8.91 8.91 0 0 0 5.08-1.947 8.613 8.613 0 0 0 2.936-4.506l1.353.344Z" stroke="#EF7F1A" stroke-width="4" mask="url(#la)"/><path d="m5.831 8.096 4.86 5.238L23 1.27" stroke="#EF7F1A" stroke-width="2"/></svg><svg fill="none" viewBox="0 0 11 6" id="select-arr" xmlns="http://www.w3.org/2000/svg"><path d="M0 .667 5.5 6 11 .667 10.313 0 5.5 4.667.687 0 0 .667Z" fill="#7F8082"/></svg><svg fill="none" viewBox="0 0 8 14" id="slider-arr" xmlns="http://www.w3.org/2000/svg"><path d="M6.636 1.455 1.182 6.909l5.454 5.455"/></svg><svg viewBox="0 0 18 30" id="slider-arr2" xmlns="http://www.w3.org/2000/svg"><path d="M16 30 0 15 16 0l2 1.875L4 15l14 13.125L16 30Z"/></svg><svg fill="none" viewBox="0 0 422 560" id="slider-elef" xmlns="http://www.w3.org/2000/svg"><path opacity=".15" fill-rule="evenodd" clip-rule="evenodd" d="m422 248.578-78.317-8.711-4.316 24.266L422 248.578Zm-770.833 136.578-102.675 81.511 62.283 68.444 13.875-37.333 30.525-30.178-4.008-82.444ZM231.142 59.733 56.008 0 10.683 65.022l-137.516 15.245-99.9-40.134L-383.983 140-454.9 375.511l-48.1 21.778 47.483 24.889 14.8-53.2 50.567-119.467 49.642 131.6L-332.183 560h104.216l-37.616-31.422 9.558-184.489 82.942 38.889 166.5-51.956L135.558 520.8 121.375 560h105.45l-38.542-48.844-77.391-244.223 50.566-37.022 107.609 32.667-6.475 149.644 41.008 126 25.592-12.755-26.825-92.4 37.925-217.156-109.15-156.178ZM-9.667 340.667-96 367.733-141.325 560h91.575l-15.417-28L11.3 368.667l-20.967-28Z" fill="#7F8082"/></svg><svg fill="none" viewBox="0 0 20 18" id="socials-tg" xmlns="http://www.w3.org/2000/svg"><path d="M.35 8.374 4.95 10.09l1.792 5.767c.078.39.546.467.858.234l2.571-2.105c.234-.233.624-.233.935 0l4.599 3.351c.311.234.779.078.857-.311L19.99.659c.078-.39-.312-.78-.701-.624L.35 7.361c-.468.156-.468.857 0 1.013Zm6.157.857 9.04-5.533c.157-.078.313.156.157.234L8.3 10.868c-.234.234-.468.546-.468.935l-.233 1.87c0 .234-.39.312-.468 0l-.935-3.428c-.234-.39-.078-.858.311-1.014Z" fill="#fff"/></svg><svg fill="none" viewBox="0 0 21 21" id="socials-whats" xmlns="http://www.w3.org/2000/svg"><path d="M17.927 3.063A10.428 10.428 0 0 0 10.537 0C4.757 0 .073 4.667.073 10.427c0 1.823.512 3.646 1.39 5.177L0 21l5.561-1.458c1.537.802 3.22 1.24 4.976 1.24 5.78 0 10.463-4.667 10.463-10.428-.073-2.698-1.098-5.323-3.073-7.291Zm-2.342 11.083c-.22.583-1.244 1.166-1.756 1.24a4.104 4.104 0 0 1-1.61-.073c-.365-.146-.877-.292-1.463-.584-2.634-1.094-4.317-3.719-4.463-3.937-.147-.146-1.098-1.386-1.098-2.698 0-1.313.659-1.896.878-2.188.22-.291.512-.291.732-.291h.512c.146 0 .366-.073.585.437.22.51.732 1.823.805 1.896a.463.463 0 0 1 0 .437 1.525 1.525 0 0 1-.292.438c-.147.146-.293.364-.366.437-.147.146-.293.292-.147.51.147.293.659 1.095 1.464 1.824 1.024.875 1.83 1.166 2.122 1.312.293.146.439.073.585-.073.146-.146.659-.729.805-1.02.146-.292.366-.22.585-.146.22.073 1.537.729 1.757.875.292.146.438.218.512.291.073.22.073.73-.147 1.313Z" fill="#fff"/></svg><svg viewBox="0 0 512 512" id="ul-marker" xmlns="http://www.w3.org/2000/svg"><path d="M256 8C119.033 8 8 119.033 8 256s111.033 248 248 248 248-111.033 248-248S392.967 8 256 8zm0 48c110.532 0 200 89.451 200 200 0 110.532-89.451 200-200 200-110.532 0-200-89.451-200-200 0-110.532 89.451-200 200-200m140.204 130.267-22.536-22.718c-4.667-4.705-12.265-4.736-16.97-.068L215.346 303.697l-59.792-60.277c-4.667-4.705-12.265-4.736-16.97-.069l-22.719 22.536c-4.705 4.667-4.736 12.265-.068 16.971l90.781 91.516c4.667 4.705 12.265 4.736 16.97.068l172.589-171.204c4.704-4.668 4.734-12.266.067-16.971z"/></svg></svg>